# xmcd
#
# Track frame offsets: 
#        182
#        25742
#        49285
#        70872
#        97905
#        114915
#        139855
#        165605
#        185147
#        206395
#        229600
#        247962
#        270452
#
# Disc length: 4035 seconds
#
# Revision: 4
# Processed by: cddbd v1.5.2PL0 Copyright (c) Steve Scherf et al.
# Submitted via: ExactAudioCopy v0.99pb4
#
DISCID=aa0fc10d
DTITLE=Manu Dubango - Wakafrika
DYEAR=1994
DGENRE=Worldbeat
TTITLE0=Soul Makossa
TTITLE1=Biko
TTITLE2=Wakafrika
TTITLE3=Em'ma
TTITLE4=Homeless
TTITLE5=Lady
TTITLE6=Hi-life
TTITLE7=Wimoweh
TTITLE8=Ami Oh!
TTITLE9=Jingo
TTITLE10=Pata Pata
TTITLE11=Diarabi
TTITLE12=Ça Va Chouia
EXTD=
EXTT0=
EXTT1=
EXTT2=
EXTT3=
EXTT4=
EXTT5=
EXTT6=
EXTT7=
EXTT8=
EXTT9=
EXTT10=
EXTT11=
EXTT12=
PLAYORDER=
